<svg width="73" height="24" viewBox="0 0 73 24" fill="none" xmlns="http://www.w3.org/2000/svg">
    <path d="M0.289062 18.5V16.7891L9.19531 3.75781H0.195312V1.53125H12.3594V3.24219L3.45312 16.2734H12.4297V18.5H0.289062ZM20.6328 18.7578C16.8828 18.7578 14.5859 16.1797 14.5859 12.2188C14.5859 8.30469 16.9297 5.60938 20.4688 5.60938C23.375 5.60938 26.1172 7.41406 26.1172 12.0078V12.8984H17.0703C17.1406 15.3125 18.5586 16.6953 20.6562 16.6953C22.0859 16.6953 23 16.0859 23.4219 15.3125H25.9531C25.3906 17.375 23.4219 18.7578 20.6328 18.7578ZM17.0938 11.0234H23.6562C23.6562 9.07812 22.4141 7.67188 20.4922 7.67188C18.4883 7.67188 17.1875 9.21875 17.0938 11.0234ZM33.9453 23.5391C30.7344 23.5391 28.625 22.1094 28.3906 19.7422H30.9453C31.1797 20.9375 32.3047 21.5234 33.9688 21.5234C35.9609 21.5234 37.2266 20.6797 37.2266 18.6875V16.1797H37.0625C36.6172 17 35.7031 18.3125 33.3594 18.3125C30.3594 18.3125 28.0391 16.0625 28.0391 12.0078C28.0391 7.95312 30.3125 5.60938 33.3828 5.60938C35.75 5.60938 36.6172 7.03906 37.0859 7.83594H37.25V5.77344H39.6875V18.7812C39.6875 22.0391 37.2266 23.5391 33.9453 23.5391ZM33.9219 16.25C36.0547 16.25 37.25 14.6797 37.25 12.0547C37.25 9.47656 36.0781 7.74219 33.9219 7.74219C31.6953 7.74219 30.5938 9.61719 30.5938 12.0547C30.5938 14.5391 31.7422 16.25 33.9219 16.25ZM42.7344 18.5V5.77344H45.2422V18.5H42.7344ZM44 3.80469C43.1328 3.80469 42.4062 3.14844 42.4062 2.32812C42.4062 1.50781 43.1328 0.851562 44 0.851562C44.8438 0.851562 45.5703 1.50781 45.5703 2.32812C45.5703 3.14844 44.8438 3.80469 44 3.80469ZM50.7969 10.9531V18.5H48.2891V1.53125H50.75V7.85938H50.9141C51.5234 6.47656 52.6953 5.60938 54.6875 5.60938C57.3125 5.60938 59.0469 7.22656 59.0469 10.4141V18.5H56.5391V10.7188C56.5391 8.84375 55.5312 7.76562 53.8438 7.76562C52.0859 7.76562 50.7969 8.91406 50.7969 10.9531ZM61.4844 14.9141C61.4844 12.0078 63.9453 11.2578 66.2422 11.0938C67.0859 11.0352 68.9961 10.9297 69.5938 10.9062L69.5703 9.89844C69.5703 8.46875 68.7031 7.625 66.9922 7.625C65.5156 7.625 64.625 8.30469 64.3672 9.24219H61.8828C62.1172 7.13281 64.0859 5.60938 67.0859 5.60938C69.1016 5.60938 72.0781 6.35938 72.0781 10.0391V18.5H69.6406V16.7656H69.5469C69.0547 17.7266 67.8828 18.7812 65.7734 18.7812C63.3594 18.7812 61.4844 17.3984 61.4844 14.9141ZM63.9219 14.9375C63.9219 16.1562 64.9297 16.7891 66.3359 16.7891C68.375 16.7891 69.5938 15.4297 69.5938 13.9062V12.7344L66.5938 12.9453C64.9531 13.0625 63.9219 13.6719 63.9219 14.9375Z" fill="#FFFFFF"/>
</svg>