<!-- EmailThick -->
<svg viewBox="0 0 20 20" xmlns="http://www.w3.org/2000/svg">
<path id="alternate_email" d="M10 20C8.61667 20 7.31667 19.7375 6.1 19.2125C4.88333 18.6875 3.825 17.975 2.925 17.075C2.025 16.175 1.3125 15.1167 0.7875 13.9C0.2625 12.6833 0 11.3833 0 10C0 8.61667 0.2625 7.31667 0.7875 6.1C1.3125 4.88333 2.025 3.825 2.925 2.925C3.825 2.025 4.88333 1.3125 6.1 0.7875C7.31667 0.2625 8.61667 0 10 0C11.3833 0 12.6833 0.2625 13.9 0.7875C15.1167 1.3125 16.175 2.025 17.075 2.925C17.975 3.825 18.6875 4.88333 19.2125 6.1C19.7375 7.31667 20 8.61667 20 10V11.45C20 12.4333 19.6625 13.2708 18.9875 13.9625C18.3125 14.6542 17.4833 15 16.5 15C15.9167 15 15.3667 14.875 14.85 14.625C14.3333 14.375 13.9 14.0167 13.55 13.55C13.0667 14.0333 12.5208 14.3958 11.9125 14.6375C11.3042 14.8792 10.6667 15 10 15C8.61667 15 7.4375 14.5125 6.4625 13.5375C5.4875 12.5625 5 11.3833 5 10C5 8.61667 5.4875 7.4375 6.4625 6.4625C7.4375 5.4875 8.61667 5 10 5C11.3833 5 12.5625 5.4875 13.5375 6.4625C14.5125 7.4375 15 8.61667 15 10V11.45C15 11.8833 15.1417 12.25 15.425 12.55C15.7083 12.85 16.0667 13 16.5 13C16.9333 13 17.2917 12.85 17.575 12.55C17.8583 12.25 18 11.8833 18 11.45V10C18 7.76667 17.225 5.875 15.675 4.325C14.125 2.775 12.2333 2 10 2C7.76667 2 5.875 2.775 4.325 4.325C2.775 5.875 2 7.76667 2 10C2 12.2333 2.775 14.125 4.325 15.675C5.875 17.225 7.76667 18 10 18H14C14.2833 18 14.5208 18.0958 14.7125 18.2875C14.9042 18.4792 15 18.7167 15 19C15 19.2833 14.9042 19.5208 14.7125 19.7125C14.5208 19.9042 14.2833 20 14 20H10ZM10 13C10.8333 13 11.5417 12.7083 12.125 12.125C12.7083 11.5417 13 10.8333 13 10C13 9.16667 12.7083 8.45833 12.125 7.875C11.5417 7.29167 10.8333 7 10 7C9.16667 7 8.45833 7.29167 7.875 7.875C7.29167 8.45833 7 9.16667 7 10C7 10.8333 7.29167 11.5417 7.875 12.125C8.45833 12.7083 9.16667 13 10 13Z"/>
</svg>
