<!-- MultiPerson -->
<svg viewBox="0 0 21 15" xmlns="http://www.w3.org/2000/svg">
<path id="group" d="M0 12.3923C0 11.8769 0.133 11.417 0.399 11.0125C0.665 10.608 1.02025 10.2933 1.46475 10.0685C2.41508 9.60367 3.37067 9.24525 4.3315 8.99325C5.2925 8.74142 6.34858 8.6155 7.49975 8.6155C8.65108 8.6155 9.70717 8.74142 10.668 8.99325C11.629 9.24525 12.5847 9.60367 13.535 10.0685C13.9795 10.2933 14.3348 10.608 14.6008 11.0125C14.8668 11.417 14.9998 11.8769 14.9998 12.3923V13.0962C14.9998 13.4987 14.852 13.8526 14.5565 14.1578C14.261 14.4629 13.9023 14.6155 13.4805 14.6155H1.519C1.09733 14.6155 0.73875 14.4678 0.44325 14.1723C0.14775 13.8766 0 13.5179 0 13.0962V12.3923ZM18.8845 14.6155H16.6133C16.7389 14.386 16.8348 14.1418 16.9008 13.8828C16.9668 13.6238 16.9998 13.3616 16.9998 13.0962V12.2692C16.9998 11.6129 16.8391 10.9873 16.5178 10.3925C16.1963 9.79783 15.7403 9.28758 15.1498 8.86175C15.8203 8.96175 16.4568 9.1165 17.0595 9.326C17.662 9.53567 18.237 9.78342 18.7845 10.0693C19.3012 10.3449 19.7002 10.6698 19.9815 11.044C20.2628 11.418 20.4035 11.8264 20.4035 12.2692V13.0962C20.4035 13.5179 20.2558 13.8766 19.9603 14.1723C19.6648 14.4678 19.3062 14.6155 18.8845 14.6155ZM7.49975 7C6.53725 7 5.71333 6.65733 5.028 5.972C4.34267 5.2865 4 4.4625 4 3.5C4 2.5375 4.34267 1.71358 5.028 1.02825C5.71333 0.34275 6.53725 0 7.49975 0C8.46225 0 9.28625 0.34275 9.97175 1.02825C10.6571 1.71358 10.9998 2.5375 10.9998 3.5C10.9998 4.4625 10.6571 5.2865 9.97175 5.972C9.28625 6.65733 8.46225 7 7.49975 7ZM16.1343 3.5C16.1343 4.4625 15.7916 5.2865 15.1063 5.972C14.4209 6.65733 13.597 7 12.6345 7C12.5217 7 12.3781 6.98717 12.2038 6.9615C12.0293 6.93583 11.8857 6.90767 11.773 6.877C12.1673 6.40283 12.4704 5.87683 12.6823 5.299C12.8939 4.72117 12.9998 4.12117 12.9998 3.499C12.9998 2.87667 12.8918 2.27892 12.6758 1.70575C12.4598 1.13275 12.1588 0.60525 11.773 0.12325C11.9165 0.0719165 12.0601 0.0385832 12.2038 0.0232498C12.3473 0.00774982 12.4908 0 12.6345 0C13.597 0 14.4209 0.34275 15.1063 1.02825C15.7916 1.71358 16.1343 2.5375 16.1343 3.5ZM1.49975 13.1155H13.4998V12.3923C13.4998 12.1834 13.4475 11.9976 13.343 11.8348C13.2387 11.6719 13.073 11.5296 12.846 11.4078C12.023 10.9834 11.1756 10.6619 10.3038 10.4433C9.43192 10.2248 8.49725 10.1155 7.49975 10.1155C6.50242 10.1155 5.56783 10.2248 4.696 10.4433C3.82417 10.6619 2.97675 10.9834 2.15375 11.4078C1.92675 11.5296 1.761 11.6719 1.6565 11.8348C1.552 11.9976 1.49975 12.1834 1.49975 12.3923V13.1155ZM7.49975 5.5C8.04975 5.5 8.52058 5.30417 8.91225 4.9125C9.30392 4.52083 9.49975 4.05 9.49975 3.5C9.49975 2.95 9.30392 2.47917 8.91225 2.0875C8.52058 1.69583 8.04975 1.5 7.49975 1.5C6.94975 1.5 6.47892 1.69583 6.08725 2.0875C5.69558 2.47917 5.49975 2.95 5.49975 3.5C5.49975 4.05 5.69558 4.52083 6.08725 4.9125C6.47892 5.30417 6.94975 5.5 7.49975 5.5Z"/>
</svg>
